<?xml version="1.0" encoding="utf-8" standalone="no"?>
<!DOCTYPE svg PUBLIC "-//W3C//DTD SVG 1.1//EN"
  "http://www.w3.org/Graphics/SVG/1.1/DTD/svg11.dtd">
<svg xmlns:xlink="http://www.w3.org/1999/xlink" width="864pt" height="345.6pt" viewBox="0 0 864 345.6" xmlns="http://www.w3.org/2000/svg" version="1.1">
 <metadata>
  <rdf:RDF xmlns:dc="http://purl.org/dc/elements/1.1/" xmlns:cc="http://creativecommons.org/ns#" xmlns:rdf="http://www.w3.org/1999/02/22-rdf-syntax-ns#">
   <cc:Work>
    <dc:type rdf:resource="http://purl.org/dc/dcmitype/StillImage"/>
    <dc:date>1980-01-01T00:00:00+00:00</dc:date>
    <dc:format>image/svg+xml</dc:format>
    <dc:creator>
     <cc:Agent>
      <dc:title>Matplotlib v3.10.8, https://matplotlib.org/</dc:title>
     </cc:Agent>
    </dc:creator>
   </cc:Work>
  </rdf:RDF>
 </metadata>
 <defs>
  <style type="text/css">*{stroke-linejoin: round; stroke-linecap: butt}</style>
 </defs>
 <g id="figure_1">
  <g id="patch_1">
   <path d="M 0 345.6 
L 864 345.6 
L 864 0 
L 0 0 
z
" style="fill: #ffffff"/>
  </g>
  <g id="axes_1">
   <g id="patch_2">
    <path d="M 75.45 299.1925 
L 422.28 299.1925 
L 422.28 19.44 
L 75.45 19.44 
z
" style="fill: #ffffff"/>
   </g>
   <g id="matplotlib.axis_1">
    <g id="xtick_1">
     <g id="line2d_1">
      <defs>
       <path id="m41a2bee552" d="M 0 0 
L 0 9 
" style="stroke: #262626; stroke-width: 1.875"/>
      </defs>
      <g>
       <use xlink:href="#m41a2bee552" x="127.595769" y="299.1925" style="fill: #262626; stroke: #262626; stroke-width: 1.875"/>
      </g>
     </g>
     <g id="text_1">
      <!-- Production -->
      <g style="fill: #262626" transform="translate(88.156902 323.502891) scale(0.165 -0.165)">
       <defs>
        <path id="ArialMT-50" d="M 494 0 
L 494 4581 
L 2222 4581 
Q 2678 4581 2919 4538 
Q 3256 4481 3484 4323 
Q 3713 4166 3852 3881 
Q 3991 3597 3991 3256 
Q 3991 2672 3619 2267 
Q 3247 1863 2275 1863 
L 1100 1863 
L 1100 0 
L 494 0 
z
M 1100 2403 
L 2284 2403 
Q 2872 2403 3119 2622 
Q 3366 2841 3366 3238 
Q 3366 3525 3220 3729 
Q 3075 3934 2838 4000 
Q 2684 4041 2272 4041 
L 1100 4041 
L 1100 2403 
z
" transform="scale(0.015625)"/>
        <path id="ArialMT-72" d="M 416 0 
L 416 3319 
L 922 3319 
L 922 2816 
Q 1116 3169 1280 3281 
Q 1444 3394 1641 3394 
Q 1925 3394 2219 3213 
L 2025 2691 
Q 1819 2813 1613 2813 
Q 1428 2813 1281 2702 
Q 1134 2591 1072 2394 
Q 978 2094 978 1738 
L 978 0 
L 416 0 
z
" transform="scale(0.015625)"/>
        <path id="ArialMT-6f" d="M 213 1659 
Q 213 2581 725 3025 
Q 1153 3394 1769 3394 
Q 2453 3394 2887 2945 
Q 3322 2497 3322 1706 
Q 3322 1066 3130 698 
Q 2938 331 2570 128 
Q 2203 -75 1769 -75 
Q 1072 -75 642 372 
Q 213 819 213 1659 
z
M 791 1659 
Q 791 1022 1069 705 
Q 1347 388 1769 388 
Q 2188 388 2466 706 
Q 2744 1025 2744 1678 
Q 2744 2294 2464 2611 
Q 2184 2928 1769 2928 
Q 1347 2928 1069 2612 
Q 791 2297 791 1659 
z
" transform="scale(0.015625)"/>
        <path id="ArialMT-64" d="M 2575 0 
L 2575 419 
Q 2259 -75 1647 -75 
Q 1250 -75 917 144 
Q 584 363 401 755 
Q 219 1147 219 1656 
Q 219 2153 384 2558 
Q 550 2963 881 3178 
Q 1213 3394 1622 3394 
Q 1922 3394 2156 3267 
Q 2391 3141 2538 2938 
L 2538 4581 
L 3097 4581 
L 3097 0 
L 2575 0 
z
M 797 1656 
Q 797 1019 1065 703 
Q 1334 388 1700 388 
Q 2069 388 2326 689 
Q 2584 991 2584 1609 
Q 2584 2291 2321 2609 
Q 2059 2928 1675 2928 
Q 1300 2928 1048 2622 
Q 797 2316 797 1656 
z
" transform="scale(0.015625)"/>
        <path id="ArialMT-75" d="M 2597 0 
L 2597 488 
Q 2209 -75 1544 -75 
Q 1250 -75 995 37 
Q 741 150 617 320 
Q 494 491 444 738 
Q 409 903 409 1263 
L 409 3319 
L 972 3319 
L 972 1478 
Q 972 1038 1006 884 
Q 1059 663 1231 536 
Q 1403 409 1656 409 
Q 1909 409 2131 539 
Q 2353 669 2445 892 
Q 2538 1116 2538 1541 
L 2538 3319 
L 3100 3319 
L 3100 0 
L 2597 0 
z
" transform="scale(0.015625)"/>
        <path id="ArialMT-63" d="M 2588 1216 
L 3141 1144 
Q 3050 572 2676 248 
Q 2303 -75 1759 -75 
Q 1078 -75 664 370 
Q 250 816 250 1647 
Q 250 2184 428 2587 
Q 606 2991 970 3192 
Q 1334 3394 1763 3394 
Q 2303 3394 2647 3120 
Q 2991 2847 3088 2344 
L 2541 2259 
Q 2463 2594 2264 2762 
Q 2066 2931 1784 2931 
Q 1359 2931 1093 2626 
Q 828 2322 828 1663 
Q 828 994 1084 691 
Q 1341 388 1753 388 
Q 2084 388 2306 591 
Q 2528 794 2588 1216 
z
" transform="scale(0.015625)"/>
        <path id="ArialMT-74" d="M 1650 503 
L 1731 6 
Q 1494 -44 1306 -44 
Q 1000 -44 831 53 
Q 663 150 594 308 
Q 525 466 525 972 
L 525 2881 
L 113 2881 
L 113 3319 
L 525 3319 
L 525 4141 
L 1084 4478 
L 1084 3319 
L 1650 3319 
L 1650 2881 
L 1084 2881 
L 1084 941 
Q 1084 700 1114 631 
Q 1144 563 1211 522 
Q 1278 481 1403 481 
Q 1497 481 1650 503 
z
" transform="scale(0.015625)"/>
        <path id="ArialMT-69" d="M 425 3934 
L 425 4581 
L 988 4581 
L 988 3934 
L 425 3934 
z
M 425 0 
L 425 3319 
L 988 3319 
L 988 0 
L 425 0 
z
" transform="scale(0.015625)"/>
        <path id="ArialMT-6e" d="M 422 0 
L 422 3319 
L 928 3319 
L 928 2847 
Q 1294 3394 1984 3394 
Q 2284 3394 2536 3286 
Q 2788 3178 2913 3003 
Q 3038 2828 3088 2588 
Q 3119 2431 3119 2041 
L 3119 0 
L 2556 0 
L 2556 2019 
Q 2556 2363 2490 2533 
Q 2425 2703 2258 2804 
Q 2091 2906 1866 2906 
Q 1506 2906 1245 2678 
Q 984 2450 984 1813 
L 984 0 
L 422 0 
z
" transform="scale(0.015625)"/>
       </defs>
       <use xlink:href="#ArialMT-50"/>
       <use xlink:href="#ArialMT-72" transform="translate(66.699219 0)"/>
       <use xlink:href="#ArialMT-6f" transform="translate(100 0)"/>
       <use xlink:href="#ArialMT-64" transform="translate(155.615234 0)"/>
       <use xlink:href="#ArialMT-75" transform="translate(211.230469 0)"/>
       <use xlink:href="#ArialMT-63" transform="translate(266.845703 0)"/>
       <use xlink:href="#ArialMT-74" transform="translate(316.845703 0)"/>
       <use xlink:href="#ArialMT-69" transform="translate(344.628906 0)"/>
       <use xlink:href="#ArialMT-6f" transform="translate(366.845703 0)"/>
       <use xlink:href="#ArialMT-6e" transform="translate(422.460938 0)"/>
      </g>
     </g>
    </g>
    <g id="xtick_2">
     <g id="line2d_2">
      <g>
       <use xlink:href="#m41a2bee552" x="248.865" y="299.1925" style="fill: #262626; stroke: #262626; stroke-width: 1.875"/>
      </g>
     </g>
     <g id="text_2">
      <!-- BBB Transport -->
      <g style="fill: #262626" transform="translate(195.216797 323.502891) scale(0.165 -0.165)">
       <defs>
        <path id="ArialMT-42" d="M 469 0 
L 469 4581 
L 2188 4581 
Q 2713 4581 3030 4442 
Q 3347 4303 3526 4014 
Q 3706 3725 3706 3409 
Q 3706 3116 3547 2856 
Q 3388 2597 3066 2438 
Q 3481 2316 3704 2022 
Q 3928 1728 3928 1328 
Q 3928 1006 3792 729 
Q 3656 453 3456 303 
Q 3256 153 2954 76 
Q 2653 0 2216 0 
L 469 0 
z
M 1075 2656 
L 2066 2656 
Q 2469 2656 2644 2709 
Q 2875 2778 2992 2937 
Q 3109 3097 3109 3338 
Q 3109 3566 3000 3739 
Q 2891 3913 2687 3977 
Q 2484 4041 1991 4041 
L 1075 4041 
L 1075 2656 
z
M 1075 541 
L 2216 541 
Q 2509 541 2628 563 
Q 2838 600 2978 687 
Q 3119 775 3209 942 
Q 3300 1109 3300 1328 
Q 3300 1584 3169 1773 
Q 3038 1963 2805 2039 
Q 2572 2116 2134 2116 
L 1075 2116 
L 1075 541 
z
" transform="scale(0.015625)"/>
        <path id="ArialMT-20" transform="scale(0.015625)"/>
        <path id="ArialMT-54" d="M 1659 0 
L 1659 4041 
L 150 4041 
L 150 4581 
L 3781 4581 
L 3781 4041 
L 2266 4041 
L 2266 0 
L 1659 0 
z
" transform="scale(0.015625)"/>
        <path id="ArialMT-61" d="M 2588 409 
Q 2275 144 1986 34 
Q 1697 -75 1366 -75 
Q 819 -75 525 192 
Q 231 459 231 875 
Q 231 1119 342 1320 
Q 453 1522 633 1644 
Q 813 1766 1038 1828 
Q 1203 1872 1538 1913 
Q 2219 1994 2541 2106 
Q 2544 2222 2544 2253 
Q 2544 2597 2384 2738 
Q 2169 2928 1744 2928 
Q 1347 2928 1158 2789 
Q 969 2650 878 2297 
L 328 2372 
Q 403 2725 575 2942 
Q 747 3159 1072 3276 
Q 1397 3394 1825 3394 
Q 2250 3394 2515 3294 
Q 2781 3194 2906 3042 
Q 3031 2891 3081 2659 
Q 3109 2516 3109 2141 
L 3109 1391 
Q 3109 606 3145 398 
Q 3181 191 3288 0 
L 2700 0 
Q 2613 175 2588 409 
z
M 2541 1666 
Q 2234 1541 1622 1453 
Q 1275 1403 1131 1340 
Q 988 1278 909 1158 
Q 831 1038 831 891 
Q 831 666 1001 516 
Q 1172 366 1500 366 
Q 1825 366 2078 508 
Q 2331 650 2450 897 
Q 2541 1088 2541 1459 
L 2541 1666 
z
" transform="scale(0.015625)"/>
        <path id="ArialMT-73" d="M 197 991 
L 753 1078 
Q 800 744 1014 566 
Q 1228 388 1613 388 
Q 2000 388 2187 545 
Q 2375 703 2375 916 
Q 2375 1106 2209 1216 
Q 2094 1291 1634 1406 
Q 1016 1563 777 1677 
Q 538 1791 414 1992 
Q 291 2194 291 2438 
Q 291 2659 392 2848 
Q 494 3038 669 3163 
Q 800 3259 1026 3326 
Q 1253 3394 1513 3394 
Q 1903 3394 2198 3281 
Q 2494 3169 2634 2976 
Q 2775 2784 2828 2463 
L 2278 2388 
Q 2241 2644 2061 2787 
Q 1881 2931 1553 2931 
Q 1166 2931 1000 2803 
Q 834 2675 834 2503 
Q 834 2394 903 2306 
Q 972 2216 1119 2156 
Q 1203 2125 1616 2013 
Q 2213 1853 2448 1751 
Q 2684 1650 2818 1456 
Q 2953 1263 2953 975 
Q 2953 694 2789 445 
Q 2625 197 2315 61 
Q 2006 -75 1616 -75 
Q 969 -75 630 194 
Q 291 463 197 991 
z
" transform="scale(0.015625)"/>
        <path id="ArialMT-70" d="M 422 -1272 
L 422 3319 
L 934 3319 
L 934 2888 
Q 1116 3141 1344 3267 
Q 1572 3394 1897 3394 
Q 2322 3394 2647 3175 
Q 2972 2956 3137 2557 
Q 3303 2159 3303 1684 
Q 3303 1175 3120 767 
Q 2938 359 2589 142 
Q 2241 -75 1856 -75 
Q 1575 -75 1351 44 
Q 1128 163 984 344 
L 984 -1272 
L 422 -1272 
z
M 931 1641 
Q 931 1000 1190 694 
Q 1450 388 1819 388 
Q 2194 388 2461 705 
Q 2728 1022 2728 1688 
Q 2728 2322 2467 2637 
Q 2206 2953 1844 2953 
Q 1484 2953 1207 2617 
Q 931 2281 931 1641 
z
" transform="scale(0.015625)"/>
       </defs>
       <use xlink:href="#ArialMT-42"/>
       <use xlink:href="#ArialMT-42" transform="translate(66.699219 0)"/>
       <use xlink:href="#ArialMT-42" transform="translate(133.398438 0)"/>
       <use xlink:href="#ArialMT-20" transform="translate(200.097656 0)"/>
       <use xlink:href="#ArialMT-54" transform="translate(226.130859 0)"/>
       <use xlink:href="#ArialMT-72" transform="translate(283.464844 0)"/>
       <use xlink:href="#ArialMT-61" transform="translate(316.765625 0)"/>
       <use xlink:href="#ArialMT-6e" transform="translate(372.380859 0)"/>
       <use xlink:href="#ArialMT-73" transform="translate(427.996094 0)"/>
       <use xlink:href="#ArialMT-70" transform="translate(477.996094 0)"/>
       <use xlink:href="#ArialMT-6f" transform="translate(533.611328 0)"/>
       <use xlink:href="#ArialMT-72" transform="translate(589.226562 0)"/>
       <use xlink:href="#ArialMT-74" transform="translate(622.527344 0)"/>
      </g>
     </g>
    </g>
    <g id="xtick_3">
     <g id="line2d_3">
      <g>
       <use xlink:href="#m41a2bee552" x="370.134231" y="299.1925" style="fill: #262626; stroke: #262626; stroke-width: 1.875"/>
      </g>
     </g>
     <g id="text_3">
      <!-- Degradation -->
      <g style="fill: #262626" transform="translate(325.189778 323.502891) scale(0.165 -0.165)">
       <defs>
        <path id="ArialMT-44" d="M 494 0 
L 494 4581 
L 2072 4581 
Q 2606 4581 2888 4516 
Q 3281 4425 3559 4188 
Q 3922 3881 4101 3404 
Q 4281 2928 4281 2316 
Q 4281 1794 4159 1391 
Q 4038 988 3847 723 
Q 3656 459 3429 307 
Q 3203 156 2883 78 
Q 2563 0 2147 0 
L 494 0 
z
M 1100 541 
L 2078 541 
Q 2531 541 2789 625 
Q 3047 709 3200 863 
Q 3416 1078 3536 1442 
Q 3656 1806 3656 2325 
Q 3656 3044 3420 3430 
Q 3184 3816 2847 3947 
Q 2603 4041 2063 4041 
L 1100 4041 
L 1100 541 
z
" transform="scale(0.015625)"/>
        <path id="ArialMT-65" d="M 2694 1069 
L 3275 997 
Q 3138 488 2766 206 
Q 2394 -75 1816 -75 
Q 1088 -75 661 373 
Q 234 822 234 1631 
Q 234 2469 665 2931 
Q 1097 3394 1784 3394 
Q 2450 3394 2872 2941 
Q 3294 2488 3294 1666 
Q 3294 1616 3291 1516 
L 816 1516 
Q 847 969 1125 678 
Q 1403 388 1819 388 
Q 2128 388 2347 550 
Q 2566 713 2694 1069 
z
M 847 1978 
L 2700 1978 
Q 2663 2397 2488 2606 
Q 2219 2931 1791 2931 
Q 1403 2931 1139 2672 
Q 875 2413 847 1978 
z
" transform="scale(0.015625)"/>
        <path id="ArialMT-67" d="M 319 -275 
L 866 -356 
Q 900 -609 1056 -725 
Q 1266 -881 1628 -881 
Q 2019 -881 2231 -725 
Q 2444 -569 2519 -288 
Q 2563 -116 2559 434 
Q 2191 0 1641 0 
Q 956 0 581 494 
Q 206 988 206 1678 
Q 206 2153 378 2554 
Q 550 2956 876 3175 
Q 1203 3394 1644 3394 
Q 2231 3394 2613 2919 
L 2613 3319 
L 3131 3319 
L 3131 450 
Q 3131 -325 2973 -648 
Q 2816 -972 2473 -1159 
Q 2131 -1347 1631 -1347 
Q 1038 -1347 672 -1080 
Q 306 -813 319 -275 
z
M 784 1719 
Q 784 1066 1043 766 
Q 1303 466 1694 466 
Q 2081 466 2343 764 
Q 2606 1063 2606 1700 
Q 2606 2309 2336 2618 
Q 2066 2928 1684 2928 
Q 1309 2928 1046 2623 
Q 784 2319 784 1719 
z
" transform="scale(0.015625)"/>
       </defs>
       <use xlink:href="#ArialMT-44"/>
       <use xlink:href="#ArialMT-65" transform="translate(72.216797 0)"/>
       <use xlink:href="#ArialMT-67" transform="translate(127.832031 0)"/>
       <use xlink:href="#ArialMT-72" transform="translate(183.447266 0)"/>
       <use xlink:href="#ArialMT-61" transform="translate(216.748047 0)"/>
       <use xlink:href="#ArialMT-64" transform="translate(272.363281 0)"/>
       <use xlink:href="#ArialMT-61" transform="translate(327.978516 0)"/>
       <use xlink:href="#ArialMT-74" transform="translate(383.59375 0)"/>
       <use xlink:href="#ArialMT-69" transform="translate(411.376953 0)"/>
       <use xlink:href="#ArialMT-6f" transform="translate(433.59375 0)"/>
       <use xlink:href="#ArialMT-6e" transform="translate(489.208984 0)"/>
      </g>
     </g>
    </g>
   </g>
   <g id="matplotlib.axis_2">
    <g id="ytick_1">
     <g id="line2d_4">
      <defs>
       <path id="m7047fadc98" d="M 0 0 
L -9 0 
" style="stroke: #262626; stroke-width: 1.875"/>
      </defs>
      <g>
       <use xlink:href="#m7047fadc98" x="75.45" y="299.1925" style="fill: #262626; stroke: #262626; stroke-width: 1.875"/>
      </g>
     </g>
     <g id="text_4">
      <!-- 0.0 -->
      <g style="fill: #262626" transform="translate(40.015 305.097695) scale(0.165 -0.165)">
       <defs>
        <path id="ArialMT-30" d="M 266 2259 
Q 266 3072 433 3567 
Q 600 4063 929 4331 
Q 1259 4600 1759 4600 
Q 2128 4600 2406 4451 
Q 2684 4303 2865 4023 
Q 3047 3744 3150 3342 
Q 3253 2941 3253 2259 
Q 3253 1453 3087 958 
Q 2922 463 2592 192 
Q 2263 -78 1759 -78 
Q 1097 -78 719 397 
Q 266 969 266 2259 
z
M 844 2259 
Q 844 1131 1108 757 
Q 1372 384 1759 384 
Q 2147 384 2411 759 
Q 2675 1134 2675 2259 
Q 2675 3391 2411 3762 
Q 2147 4134 1753 4134 
Q 1366 4134 1134 3806 
Q 844 3388 844 2259 
z
" transform="scale(0.015625)"/>
        <path id="ArialMT-2e" d="M 581 0 
L 581 641 
L 1222 641 
L 1222 0 
L 581 0 
z
" transform="scale(0.015625)"/>
       </defs>
       <use xlink:href="#ArialMT-30"/>
       <use xlink:href="#ArialMT-2e" transform="translate(55.615234 0)"/>
       <use xlink:href="#ArialMT-30" transform="translate(83.398438 0)"/>
      </g>
     </g>
    </g>
    <g id="ytick_2">
     <g id="line2d_5">
      <g>
       <use xlink:href="#m7047fadc98" x="75.45" y="248.08327" style="fill: #262626; stroke: #262626; stroke-width: 1.875"/>
      </g>
     </g>
     <g id="text_5">
      <!-- 0.2 -->
      <g style="fill: #262626" transform="translate(40.015 253.988466) scale(0.165 -0.165)">
       <defs>
        <path id="ArialMT-32" d="M 3222 541 
L 3222 0 
L 194 0 
Q 188 203 259 391 
Q 375 700 629 1000 
Q 884 1300 1366 1694 
Q 2113 2306 2375 2664 
Q 2638 3022 2638 3341 
Q 2638 3675 2398 3904 
Q 2159 4134 1775 4134 
Q 1369 4134 1125 3890 
Q 881 3647 878 3216 
L 300 3275 
Q 359 3922 746 4261 
Q 1134 4600 1788 4600 
Q 2447 4600 2831 4234 
Q 3216 3869 3216 3328 
Q 3216 3053 3103 2787 
Q 2991 2522 2730 2228 
Q 2469 1934 1863 1422 
Q 1356 997 1212 845 
Q 1069 694 975 541 
L 3222 541 
z
" transform="scale(0.015625)"/>
       </defs>
       <use xlink:href="#ArialMT-30"/>
       <use xlink:href="#ArialMT-2e" transform="translate(55.615234 0)"/>
       <use xlink:href="#ArialMT-32" transform="translate(83.398438 0)"/>
      </g>
     </g>
    </g>
    <g id="ytick_3">
     <g id="line2d_6">
      <g>
       <use xlink:href="#m7047fadc98" x="75.45" y="196.974041" style="fill: #262626; stroke: #262626; stroke-width: 1.875"/>
      </g>
     </g>
     <g id="text_6">
      <!-- 0.4 -->
      <g style="fill: #262626" transform="translate(40.015 202.879236) scale(0.165 -0.165)">
       <defs>
        <path id="ArialMT-34" d="M 2069 0 
L 2069 1097 
L 81 1097 
L 81 1613 
L 2172 4581 
L 2631 4581 
L 2631 1613 
L 3250 1613 
L 3250 1097 
L 2631 1097 
L 2631 0 
L 2069 0 
z
M 2069 1613 
L 2069 3678 
L 634 1613 
L 2069 1613 
z
" transform="scale(0.015625)"/>
       </defs>
       <use xlink:href="#ArialMT-30"/>
       <use xlink:href="#ArialMT-2e" transform="translate(55.615234 0)"/>
       <use xlink:href="#ArialMT-34" transform="translate(83.398438 0)"/>
      </g>
     </g>
    </g>
    <g id="ytick_4">
     <g id="line2d_7">
      <g>
       <use xlink:href="#m7047fadc98" x="75.45" y="145.864811" style="fill: #262626; stroke: #262626; stroke-width: 1.875"/>
      </g>
     </g>
     <g id="text_7">
      <!-- 0.6 -->
      <g style="fill: #262626" transform="translate(40.015 151.770007) scale(0.165 -0.165)">
       <defs>
        <path id="ArialMT-36" d="M 3184 3459 
L 2625 3416 
Q 2550 3747 2413 3897 
Q 2184 4138 1850 4138 
Q 1581 4138 1378 3988 
Q 1113 3794 959 3422 
Q 806 3050 800 2363 
Q 1003 2672 1297 2822 
Q 1591 2972 1913 2972 
Q 2475 2972 2870 2558 
Q 3266 2144 3266 1488 
Q 3266 1056 3080 686 
Q 2894 316 2569 119 
Q 2244 -78 1831 -78 
Q 1128 -78 684 439 
Q 241 956 241 2144 
Q 241 3472 731 4075 
Q 1159 4600 1884 4600 
Q 2425 4600 2770 4297 
Q 3116 3994 3184 3459 
z
M 888 1484 
Q 888 1194 1011 928 
Q 1134 663 1356 523 
Q 1578 384 1822 384 
Q 2178 384 2434 671 
Q 2691 959 2691 1453 
Q 2691 1928 2437 2201 
Q 2184 2475 1800 2475 
Q 1419 2475 1153 2201 
Q 888 1928 888 1484 
z
" transform="scale(0.015625)"/>
       </defs>
       <use xlink:href="#ArialMT-30"/>
       <use xlink:href="#ArialMT-2e" transform="translate(55.615234 0)"/>
       <use xlink:href="#ArialMT-36" transform="translate(83.398438 0)"/>
      </g>
     </g>
    </g>
    <g id="ytick_5">
     <g id="line2d_8">
      <g>
       <use xlink:href="#m7047fadc98" x="75.45" y="94.755582" style="fill: #262626; stroke: #262626; stroke-width: 1.875"/>
      </g>
     </g>
     <g id="text_8">
      <!-- 0.8 -->
      <g style="fill: #262626" transform="translate(40.015 100.660777) scale(0.165 -0.165)">
       <defs>
        <path id="ArialMT-38" d="M 1131 2484 
Q 781 2613 612 2850 
Q 444 3088 444 3419 
Q 444 3919 803 4259 
Q 1163 4600 1759 4600 
Q 2359 4600 2725 4251 
Q 3091 3903 3091 3403 
Q 3091 3084 2923 2848 
Q 2756 2613 2416 2484 
Q 2838 2347 3058 2040 
Q 3278 1734 3278 1309 
Q 3278 722 2862 322 
Q 2447 -78 1769 -78 
Q 1091 -78 675 323 
Q 259 725 259 1325 
Q 259 1772 486 2073 
Q 713 2375 1131 2484 
z
M 1019 3438 
Q 1019 3113 1228 2906 
Q 1438 2700 1772 2700 
Q 2097 2700 2305 2904 
Q 2513 3109 2513 3406 
Q 2513 3716 2298 3927 
Q 2084 4138 1766 4138 
Q 1444 4138 1231 3931 
Q 1019 3725 1019 3438 
z
M 838 1322 
Q 838 1081 952 856 
Q 1066 631 1291 507 
Q 1516 384 1775 384 
Q 2178 384 2440 643 
Q 2703 903 2703 1303 
Q 2703 1709 2433 1975 
Q 2163 2241 1756 2241 
Q 1359 2241 1098 1978 
Q 838 1716 838 1322 
z
" transform="scale(0.015625)"/>
       </defs>
       <use xlink:href="#ArialMT-30"/>
       <use xlink:href="#ArialMT-2e" transform="translate(55.615234 0)"/>
       <use xlink:href="#ArialMT-38" transform="translate(83.398438 0)"/>
      </g>
     </g>
    </g>
    <g id="ytick_6">
     <g id="line2d_9">
      <g>
       <use xlink:href="#m7047fadc98" x="75.45" y="43.646352" style="fill: #262626; stroke: #262626; stroke-width: 1.875"/>
      </g>
     </g>
     <g id="text_9">
      <!-- 1.0 -->
      <g style="fill: #262626" transform="translate(40.015 49.551547) scale(0.165 -0.165)">
       <defs>
        <path id="ArialMT-31" d="M 2384 0 
L 1822 0 
L 1822 3584 
Q 1619 3391 1289 3197 
Q 959 3003 697 2906 
L 697 3450 
Q 1169 3672 1522 3987 
Q 1875 4303 2022 4600 
L 2384 4600 
L 2384 0 
z
" transform="scale(0.015625)"/>
       </defs>
       <use xlink:href="#ArialMT-31"/>
       <use xlink:href="#ArialMT-2e" transform="translate(55.615234 0)"/>
       <use xlink:href="#ArialMT-30" transform="translate(83.398438 0)"/>
      </g>
     </g>
    </g>
    <g id="text_10">
     <!-- Relative Importance -->
     <g style="fill: #262626" transform="translate(32.4375 239.34875) rotate(-90) scale(0.18 -0.18)">
      <defs>
       <path id="ArialMT-52" d="M 503 0 
L 503 4581 
L 2534 4581 
Q 3147 4581 3465 4457 
Q 3784 4334 3975 4021 
Q 4166 3709 4166 3331 
Q 4166 2844 3850 2509 
Q 3534 2175 2875 2084 
Q 3116 1969 3241 1856 
Q 3506 1613 3744 1247 
L 4541 0 
L 3778 0 
L 3172 953 
Q 2906 1366 2734 1584 
Q 2563 1803 2427 1890 
Q 2291 1978 2150 2013 
Q 2047 2034 1813 2034 
L 1109 2034 
L 1109 0 
L 503 0 
z
M 1109 2559 
L 2413 2559 
Q 2828 2559 3062 2645 
Q 3297 2731 3419 2920 
Q 3541 3109 3541 3331 
Q 3541 3656 3305 3865 
Q 3069 4075 2559 4075 
L 1109 4075 
L 1109 2559 
z
" transform="scale(0.015625)"/>
       <path id="ArialMT-6c" d="M 409 0 
L 409 4581 
L 972 4581 
L 972 0 
L 409 0 
z
" transform="scale(0.015625)"/>
       <path id="ArialMT-76" d="M 1344 0 
L 81 3319 
L 675 3319 
L 1388 1331 
Q 1503 1009 1600 663 
Q 1675 925 1809 1294 
L 2547 3319 
L 3125 3319 
L 1869 0 
L 1344 0 
z
" transform="scale(0.015625)"/>
       <path id="ArialMT-49" d="M 597 0 
L 597 4581 
L 1203 4581 
L 1203 0 
L 597 0 
z
" transform="scale(0.015625)"/>
       <path id="ArialMT-6d" d="M 422 0 
L 422 3319 
L 925 3319 
L 925 2853 
Q 1081 3097 1340 3245 
Q 1600 3394 1931 3394 
Q 2300 3394 2536 3241 
Q 2772 3088 2869 2813 
Q 3263 3394 3894 3394 
Q 4388 3394 4653 3120 
Q 4919 2847 4919 2278 
L 4919 0 
L 4359 0 
L 4359 2091 
Q 4359 2428 4304 2576 
Q 4250 2725 4106 2815 
Q 3963 2906 3769 2906 
Q 3419 2906 3187 2673 
Q 2956 2441 2956 1928 
L 2956 0 
L 2394 0 
L 2394 2156 
Q 2394 2531 2256 2718 
Q 2119 2906 1806 2906 
Q 1569 2906 1367 2781 
Q 1166 2656 1075 2415 
Q 984 2175 984 1722 
L 984 0 
L 422 0 
z
" transform="scale(0.015625)"/>
      </defs>
      <use xlink:href="#ArialMT-52"/>
      <use xlink:href="#ArialMT-65" transform="translate(72.216797 0)"/>
      <use xlink:href="#ArialMT-6c" transform="translate(127.832031 0)"/>
      <use xlink:href="#ArialMT-61" transform="translate(150.048828 0)"/>
      <use xlink:href="#ArialMT-74" transform="translate(205.664062 0)"/>
      <use xlink:href="#ArialMT-69" transform="translate(233.447266 0)"/>
      <use xlink:href="#ArialMT-76" transform="translate(255.664062 0)"/>
      <use xlink:href="#ArialMT-65" transform="translate(305.664062 0)"/>
      <use xlink:href="#ArialMT-20" transform="translate(361.279297 0)"/>
      <use xlink:href="#ArialMT-49" transform="translate(389.0625 0)"/>
      <use xlink:href="#ArialMT-6d" transform="translate(416.845703 0)"/>
      <use xlink:href="#ArialMT-70" transform="translate(500.146484 0)"/>
      <use xlink:href="#ArialMT-6f" transform="translate(555.761719 0)"/>
      <use xlink:href="#ArialMT-72" transform="translate(611.376953 0)"/>
      <use xlink:href="#ArialMT-74" transform="translate(644.677734 0)"/>
      <use xlink:href="#ArialMT-61" transform="translate(672.460938 0)"/>
      <use xlink:href="#ArialMT-6e" transform="translate(728.076172 0)"/>
      <use xlink:href="#ArialMT-63" transform="translate(783.691406 0)"/>
      <use xlink:href="#ArialMT-65" transform="translate(833.691406 0)"/>
     </g>
    </g>
   </g>
   <g id="patch_3">
    <path d="M 91.215 299.1925 
L 115.468846 299.1925 
L 115.468846 43.646352 
L 91.215 43.646352 
z
" clip-path="url(#pa3b6a7ae57)" style="fill: #7dba91; stroke: #ffffff; stroke-width: 1.5; stroke-linejoin: miter"/>
   </g>
   <g id="patch_4">
    <path d="M 212.484231 299.1925 
L 236.738077 299.1925 
L 236.738077 248.772155 
L 212.484231 248.772155 
z
" clip-path="url(#pa3b6a7ae57)" style="fill: #7dba91; stroke: #ffffff; stroke-width: 1.5; stroke-linejoin: miter"/>
   </g>
   <g id="patch_5">
    <path d="M 333.753462 299.1925 
L 358.007308 299.1925 
L 358.007308 289.93757 
L 333.753462 289.93757 
z
" clip-path="url(#pa3b6a7ae57)" style="fill: #7dba91; stroke: #ffffff; stroke-width: 1.5; stroke-linejoin: miter"/>
   </g>
   <g id="patch_6">
    <path d="M 115.468846 299.1925 
L 139.722692 299.1925 
L 139.722692 43.646352 
L 115.468846 43.646352 
z
" clip-path="url(#pa3b6a7ae57)" style="fill: #40908e; stroke: #ffffff; stroke-width: 1.5; stroke-linejoin: miter"/>
   </g>
   <g id="patch_7">
    <path d="M 236.738077 299.1925 
L 260.991923 299.1925 
L 260.991923 298.314531 
L 236.738077 298.314531 
z
" clip-path="url(#pa3b6a7ae57)" style="fill: #40908e; stroke: #ffffff; stroke-width: 1.5; stroke-linejoin: miter"/>
   </g>
   <g id="patch_8">
    <path d="M 358.007308 299.1925 
L 382.261154 299.1925 
L 382.261154 140.470834 
L 358.007308 140.470834 
z
" clip-path="url(#pa3b6a7ae57)" style="fill: #40908e; stroke: #ffffff; stroke-width: 1.5; stroke-linejoin: miter"/>
   </g>
   <g id="patch_9">
    <path d="M 139.722692 299.1925 
L 163.976538 299.1925 
L 163.976538 43.646352 
L 139.722692 43.646352 
z
" clip-path="url(#pa3b6a7ae57)" style="fill: #1c6488; stroke: #ffffff; stroke-width: 1.5; stroke-linejoin: miter"/>
   </g>
   <g id="patch_10">
    <path d="M 260.991923 299.1925 
L 285.245769 299.1925 
L 285.245769 299.00249 
L 260.991923 299.00249 
z
" clip-path="url(#pa3b6a7ae57)" style="fill: #1c6488; stroke: #ffffff; stroke-width: 1.5; stroke-linejoin: miter"/>
   </g>
   <g id="patch_11">
    <path d="M 382.261154 299.1925 
L 406.515 299.1925 
L 406.515 76.124932 
L 382.261154 76.124932 
z
" clip-path="url(#pa3b6a7ae57)" style="fill: #1c6488; stroke: #ffffff; stroke-width: 1.5; stroke-linejoin: miter"/>
   </g>
   <g id="LineCollection_1">
    <path d="M 103.341923 46.941321 
L 103.341923 40.351383 
" clip-path="url(#pa3b6a7ae57)" style="fill: none; stroke: #1a1a1a; stroke-width: 2.25"/>
    <path d="M 224.611154 252.328203 
L 224.611154 245.216107 
" clip-path="url(#pa3b6a7ae57)" style="fill: none; stroke: #1a1a1a; stroke-width: 2.25"/>
    <path d="M 345.880385 290.391865 
L 345.880385 289.483275 
" clip-path="url(#pa3b6a7ae57)" style="fill: none; stroke: #1a1a1a; stroke-width: 2.25"/>
   </g>
   <g id="LineCollection_2">
    <path d="M 127.595769 52.722757 
L 127.595769 34.569947 
" clip-path="url(#pa3b6a7ae57)" style="fill: none; stroke: #1a1a1a; stroke-width: 2.25"/>
    <path d="M 248.865 298.383079 
L 248.865 298.245983 
" clip-path="url(#pa3b6a7ae57)" style="fill: none; stroke: #1a1a1a; stroke-width: 2.25"/>
    <path d="M 370.134231 147.994111 
L 370.134231 132.947556 
" clip-path="url(#pa3b6a7ae57)" style="fill: none; stroke: #1a1a1a; stroke-width: 2.25"/>
   </g>
   <g id="LineCollection_3">
    <path d="M 151.849615 54.531156 
L 151.849615 32.761548 
" clip-path="url(#pa3b6a7ae57)" style="fill: none; stroke: #1a1a1a; stroke-width: 2.25"/>
    <path d="M 273.118846 299.028576 
L 273.118846 298.976404 
" clip-path="url(#pa3b6a7ae57)" style="fill: none; stroke: #1a1a1a; stroke-width: 2.25"/>
    <path d="M 394.388077 86.051587 
L 394.388077 66.198276 
" clip-path="url(#pa3b6a7ae57)" style="fill: none; stroke: #1a1a1a; stroke-width: 2.25"/>
   </g>
   <g id="patch_12">
    <path d="M 75.45 299.1925 
L 75.45 19.44 
" style="fill: none; stroke: #262626; stroke-width: 1.875; stroke-linejoin: miter; stroke-linecap: square"/>
   </g>
   <g id="patch_13">
    <path d="M 75.45 299.1925 
L 422.28 299.1925 
" style="fill: none; stroke: #262626; stroke-width: 1.875; stroke-linejoin: miter; stroke-linecap: square"/>
   </g>
  </g>
  <g id="axes_2">
   <g id="patch_14">
    <path d="M 497.73 299.1925 
L 844.56 299.1925 
L 844.56 19.44 
L 497.73 19.44 
z
" style="fill: #ffffff"/>
   </g>
   <g id="matplotlib.axis_3">
    <g id="xtick_4">
     <g id="line2d_10">
      <g>
       <use xlink:href="#m41a2bee552" x="549.875769" y="299.1925" style="fill: #262626; stroke: #262626; stroke-width: 1.875"/>
      </g>
     </g>
     <g id="text_11">
      <!-- Production -->
      <g style="fill: #262626" transform="translate(510.436902 323.502891) scale(0.165 -0.165)">
       <use xlink:href="#ArialMT-50"/>
       <use xlink:href="#ArialMT-72" transform="translate(66.699219 0)"/>
       <use xlink:href="#ArialMT-6f" transform="translate(100 0)"/>
       <use xlink:href="#ArialMT-64" transform="translate(155.615234 0)"/>
       <use xlink:href="#ArialMT-75" transform="translate(211.230469 0)"/>
       <use xlink:href="#ArialMT-63" transform="translate(266.845703 0)"/>
       <use xlink:href="#ArialMT-74" transform="translate(316.845703 0)"/>
       <use xlink:href="#ArialMT-69" transform="translate(344.628906 0)"/>
       <use xlink:href="#ArialMT-6f" transform="translate(366.845703 0)"/>
       <use xlink:href="#ArialMT-6e" transform="translate(422.460938 0)"/>
      </g>
     </g>
    </g>
    <g id="xtick_5">
     <g id="line2d_11">
      <g>
       <use xlink:href="#m41a2bee552" x="671.145" y="299.1925" style="fill: #262626; stroke: #262626; stroke-width: 1.875"/>
      </g>
     </g>
     <g id="text_12">
      <!-- BBB Transport -->
      <g style="fill: #262626" transform="translate(617.496797 323.502891) scale(0.165 -0.165)">
       <use xlink:href="#ArialMT-42"/>
       <use xlink:href="#ArialMT-42" transform="translate(66.699219 0)"/>
       <use xlink:href="#ArialMT-42" transform="translate(133.398438 0)"/>
       <use xlink:href="#ArialMT-20" transform="translate(200.097656 0)"/>
       <use xlink:href="#ArialMT-54" transform="translate(226.130859 0)"/>
       <use xlink:href="#ArialMT-72" transform="translate(283.464844 0)"/>
       <use xlink:href="#ArialMT-61" transform="translate(316.765625 0)"/>
       <use xlink:href="#ArialMT-6e" transform="translate(372.380859 0)"/>
       <use xlink:href="#ArialMT-73" transform="translate(427.996094 0)"/>
       <use xlink:href="#ArialMT-70" transform="translate(477.996094 0)"/>
       <use xlink:href="#ArialMT-6f" transform="translate(533.611328 0)"/>
       <use xlink:href="#ArialMT-72" transform="translate(589.226562 0)"/>
       <use xlink:href="#ArialMT-74" transform="translate(622.527344 0)"/>
      </g>
     </g>
    </g>
    <g id="xtick_6">
     <g id="line2d_12">
      <g>
       <use xlink:href="#m41a2bee552" x="792.414231" y="299.1925" style="fill: #262626; stroke: #262626; stroke-width: 1.875"/>
      </g>
     </g>
     <g id="text_13">
      <!-- Degradation -->
      <g style="fill: #262626" transform="translate(747.469778 323.502891) scale(0.165 -0.165)">
       <use xlink:href="#ArialMT-44"/>
       <use xlink:href="#ArialMT-65" transform="translate(72.216797 0)"/>
       <use xlink:href="#ArialMT-67" transform="translate(127.832031 0)"/>
       <use xlink:href="#ArialMT-72" transform="translate(183.447266 0)"/>
       <use xlink:href="#ArialMT-61" transform="translate(216.748047 0)"/>
       <use xlink:href="#ArialMT-64" transform="translate(272.363281 0)"/>
       <use xlink:href="#ArialMT-61" transform="translate(327.978516 0)"/>
       <use xlink:href="#ArialMT-74" transform="translate(383.59375 0)"/>
       <use xlink:href="#ArialMT-69" transform="translate(411.376953 0)"/>
       <use xlink:href="#ArialMT-6f" transform="translate(433.59375 0)"/>
       <use xlink:href="#ArialMT-6e" transform="translate(489.208984 0)"/>
      </g>
     </g>
    </g>
   </g>
   <g id="matplotlib.axis_4">
    <g id="ytick_7">
     <g id="line2d_13">
      <g>
       <use xlink:href="#m7047fadc98" x="497.73" y="299.1925" style="fill: #262626; stroke: #262626; stroke-width: 1.875"/>
      </g>
     </g>
     <g id="text_14">
      <!-- 0.0 -->
      <g style="fill: #262626" transform="translate(462.295 305.097695) scale(0.165 -0.165)">
       <use xlink:href="#ArialMT-30"/>
       <use xlink:href="#ArialMT-2e" transform="translate(55.615234 0)"/>
       <use xlink:href="#ArialMT-30" transform="translate(83.398438 0)"/>
      </g>
     </g>
    </g>
    <g id="ytick_8">
     <g id="line2d_14">
      <g>
       <use xlink:href="#m7047fadc98" x="497.73" y="245.90631" style="fill: #262626; stroke: #262626; stroke-width: 1.875"/>
      </g>
     </g>
     <g id="text_15">
      <!-- 0.2 -->
      <g style="fill: #262626" transform="translate(462.295 251.811505) scale(0.165 -0.165)">
       <use xlink:href="#ArialMT-30"/>
       <use xlink:href="#ArialMT-2e" transform="translate(55.615234 0)"/>
       <use xlink:href="#ArialMT-32" transform="translate(83.398438 0)"/>
      </g>
     </g>
    </g>
    <g id="ytick_9">
     <g id="line2d_15">
      <g>
       <use xlink:href="#m7047fadc98" x="497.73" y="192.620119" style="fill: #262626; stroke: #262626; stroke-width: 1.875"/>
      </g>
     </g>
     <g id="text_16">
      <!-- 0.4 -->
      <g style="fill: #262626" transform="translate(462.295 198.525314) scale(0.165 -0.165)">
       <use xlink:href="#ArialMT-30"/>
       <use xlink:href="#ArialMT-2e" transform="translate(55.615234 0)"/>
       <use xlink:href="#ArialMT-34" transform="translate(83.398438 0)"/>
      </g>
     </g>
    </g>
    <g id="ytick_10">
     <g id="line2d_16">
      <g>
       <use xlink:href="#m7047fadc98" x="497.73" y="139.333929" style="fill: #262626; stroke: #262626; stroke-width: 1.875"/>
      </g>
     </g>
     <g id="text_17">
      <!-- 0.6 -->
      <g style="fill: #262626" transform="translate(462.295 145.239124) scale(0.165 -0.165)">
       <use xlink:href="#ArialMT-30"/>
       <use xlink:href="#ArialMT-2e" transform="translate(55.615234 0)"/>
       <use xlink:href="#ArialMT-36" transform="translate(83.398438 0)"/>
      </g>
     </g>
    </g>
    <g id="ytick_11">
     <g id="line2d_17">
      <g>
       <use xlink:href="#m7047fadc98" x="497.73" y="86.047738" style="fill: #262626; stroke: #262626; stroke-width: 1.875"/>
      </g>
     </g>
     <g id="text_18">
      <!-- 0.8 -->
      <g style="fill: #262626" transform="translate(462.295 91.952933) scale(0.165 -0.165)">
       <use xlink:href="#ArialMT-30"/>
       <use xlink:href="#ArialMT-2e" transform="translate(55.615234 0)"/>
       <use xlink:href="#ArialMT-38" transform="translate(83.398438 0)"/>
      </g>
     </g>
    </g>
    <g id="ytick_12">
     <g id="line2d_18">
      <g>
       <use xlink:href="#m7047fadc98" x="497.73" y="32.761548" style="fill: #262626; stroke: #262626; stroke-width: 1.875"/>
      </g>
     </g>
     <g id="text_19">
      <!-- 1.0 -->
      <g style="fill: #262626" transform="translate(462.295 38.666743) scale(0.165 -0.165)">
       <use xlink:href="#ArialMT-31"/>
       <use xlink:href="#ArialMT-2e" transform="translate(55.615234 0)"/>
       <use xlink:href="#ArialMT-30" transform="translate(83.398438 0)"/>
      </g>
     </g>
    </g>
    <g id="text_20">
     <!-- Relative Nonlinearity or Interaction -->
     <g style="fill: #262626" transform="translate(454.506563 296.874219) rotate(-90) scale(0.18 -0.18)">
      <defs>
       <path id="ArialMT-4e" d="M 488 0 
L 488 4581 
L 1109 4581 
L 3516 984 
L 3516 4581 
L 4097 4581 
L 4097 0 
L 3475 0 
L 1069 3600 
L 1069 0 
L 488 0 
z
" transform="scale(0.015625)"/>
       <path id="ArialMT-79" d="M 397 -1278 
L 334 -750 
Q 519 -800 656 -800 
Q 844 -800 956 -737 
Q 1069 -675 1141 -563 
Q 1194 -478 1313 -144 
Q 1328 -97 1363 -6 
L 103 3319 
L 709 3319 
L 1400 1397 
Q 1534 1031 1641 628 
Q 1738 1016 1872 1384 
L 2581 3319 
L 3144 3319 
L 1881 -56 
Q 1678 -603 1566 -809 
Q 1416 -1088 1222 -1217 
Q 1028 -1347 759 -1347 
Q 597 -1347 397 -1278 
z
" transform="scale(0.015625)"/>
      </defs>
      <use xlink:href="#ArialMT-52"/>
      <use xlink:href="#ArialMT-65" transform="translate(72.216797 0)"/>
      <use xlink:href="#ArialMT-6c" transform="translate(127.832031 0)"/>
      <use xlink:href="#ArialMT-61" transform="translate(150.048828 0)"/>
      <use xlink:href="#ArialMT-74" transform="translate(205.664062 0)"/>
      <use xlink:href="#ArialMT-69" transform="translate(233.447266 0)"/>
      <use xlink:href="#ArialMT-76" transform="translate(255.664062 0)"/>
      <use xlink:href="#ArialMT-65" transform="translate(305.664062 0)"/>
      <use xlink:href="#ArialMT-20" transform="translate(361.279297 0)"/>
      <use xlink:href="#ArialMT-4e" transform="translate(389.0625 0)"/>
      <use xlink:href="#ArialMT-6f" transform="translate(461.279297 0)"/>
      <use xlink:href="#ArialMT-6e" transform="translate(516.894531 0)"/>
      <use xlink:href="#ArialMT-6c" transform="translate(572.509766 0)"/>
      <use xlink:href="#ArialMT-69" transform="translate(594.726562 0)"/>
      <use xlink:href="#ArialMT-6e" transform="translate(616.943359 0)"/>
      <use xlink:href="#ArialMT-65" transform="translate(672.558594 0)"/>
      <use xlink:href="#ArialMT-61" transform="translate(728.173828 0)"/>
      <use xlink:href="#ArialMT-72" transform="translate(783.789062 0)"/>
      <use xlink:href="#ArialMT-69" transform="translate(817.089844 0)"/>
      <use xlink:href="#ArialMT-74" transform="translate(839.306641 0)"/>
      <use xlink:href="#ArialMT-79" transform="translate(867.089844 0)"/>
      <use xlink:href="#ArialMT-20" transform="translate(917.089844 0)"/>
      <use xlink:href="#ArialMT-6f" transform="translate(944.873047 0)"/>
      <use xlink:href="#ArialMT-72" transform="translate(1000.488281 0)"/>
      <use xlink:href="#ArialMT-20" transform="translate(1033.789062 0)"/>
      <use xlink:href="#ArialMT-49" transform="translate(1061.572266 0)"/>
      <use xlink:href="#ArialMT-6e" transform="translate(1089.355469 0)"/>
      <use xlink:href="#ArialMT-74" transform="translate(1144.970703 0)"/>
      <use xlink:href="#ArialMT-65" transform="translate(1172.753906 0)"/>
      <use xlink:href="#ArialMT-72" transform="translate(1228.369141 0)"/>
      <use xlink:href="#ArialMT-61" transform="translate(1261.669922 0)"/>
      <use xlink:href="#ArialMT-63" transform="translate(1317.285156 0)"/>
      <use xlink:href="#ArialMT-74" transform="translate(1367.285156 0)"/>
      <use xlink:href="#ArialMT-69" transform="translate(1395.068359 0)"/>
      <use xlink:href="#ArialMT-6f" transform="translate(1417.285156 0)"/>
      <use xlink:href="#ArialMT-6e" transform="translate(1472.900391 0)"/>
     </g>
    </g>
   </g>
   <g id="patch_15">
    <path d="M 513.495 299.1925 
L 537.748846 299.1925 
L 537.748846 52.749365 
L 513.495 52.749365 
z
" clip-path="url(#p12c5bfec19)" style="fill: #7dba91; stroke: #ffffff; stroke-width: 1.5; stroke-linejoin: miter"/>
   </g>
   <g id="patch_16">
    <path d="M 634.764231 299.1925 
L 659.018077 299.1925 
L 659.018077 32.761548 
L 634.764231 32.761548 
z
" clip-path="url(#p12c5bfec19)" style="fill: #7dba91; stroke: #ffffff; stroke-width: 1.5; stroke-linejoin: miter"/>
   </g>
   <g id="patch_17">
    <path d="M 756.033462 299.1925 
L 780.287308 299.1925 
L 780.287308 264.731935 
L 756.033462 264.731935 
z
" clip-path="url(#p12c5bfec19)" style="fill: #7dba91; stroke: #ffffff; stroke-width: 1.5; stroke-linejoin: miter"/>
   </g>
   <g id="patch_18">
    <path d="M 537.748846 299.1925 
L 562.002692 299.1925 
L 562.002692 32.761548 
L 537.748846 32.761548 
z
" clip-path="url(#p12c5bfec19)" style="fill: #40908e; stroke: #ffffff; stroke-width: 1.5; stroke-linejoin: miter"/>
   </g>
   <g id="patch_19">
    <path d="M 659.018077 299.1925 
L 683.271923 299.1925 
L 683.271923 296.592963 
L 659.018077 296.592963 
z
" clip-path="url(#p12c5bfec19)" style="fill: #40908e; stroke: #ffffff; stroke-width: 1.5; stroke-linejoin: miter"/>
   </g>
   <g id="patch_20">
    <path d="M 780.287308 299.1925 
L 804.541154 299.1925 
L 804.541154 65.332591 
L 780.287308 65.332591 
z
" clip-path="url(#p12c5bfec19)" style="fill: #40908e; stroke: #ffffff; stroke-width: 1.5; stroke-linejoin: miter"/>
   </g>
   <g id="patch_21">
    <path d="M 562.002692 299.1925 
L 586.256538 299.1925 
L 586.256538 32.761548 
L 562.002692 32.761548 
z
" clip-path="url(#p12c5bfec19)" style="fill: #1c6488; stroke: #ffffff; stroke-width: 1.5; stroke-linejoin: miter"/>
   </g>
   <g id="patch_22">
    <path d="M 683.271923 299.1925 
L 707.525769 299.1925 
L 707.525769 298.50069 
L 683.271923 298.50069 
z
" clip-path="url(#p12c5bfec19)" style="fill: #1c6488; stroke: #ffffff; stroke-width: 1.5; stroke-linejoin: miter"/>
   </g>
   <g id="patch_23">
    <path d="M 804.541154 299.1925 
L 828.795 299.1925 
L 828.795 42.909729 
L 804.541154 42.909729 
z
" clip-path="url(#p12c5bfec19)" style="fill: #1c6488; stroke: #ffffff; stroke-width: 1.5; stroke-linejoin: miter"/>
   </g>
   <g id="patch_24">
    <path d="M 497.73 299.1925 
L 497.73 19.44 
" style="fill: none; stroke: #262626; stroke-width: 1.875; stroke-linejoin: miter; stroke-linecap: square"/>
   </g>
   <g id="patch_25">
    <path d="M 497.73 299.1925 
L 844.56 299.1925 
" style="fill: none; stroke: #262626; stroke-width: 1.875; stroke-linejoin: miter; stroke-linecap: square"/>
   </g>
  </g>
 </g>
 <defs>
  <clipPath id="pa3b6a7ae57">
   <rect x="75.45" y="19.44" width="346.83" height="279.7525"/>
  </clipPath>
  <clipPath id="p12c5bfec19">
   <rect x="497.73" y="19.44" width="346.83" height="279.7525"/>
  </clipPath>
 </defs>
</svg>
